<?xml version="1.0" encoding="UTF-8" standalone="no"?>
<!-- Created with Inkscape (http://www.inkscape.org/) -->

<svg
   xmlns:osb="http://www.openswatchbook.org/uri/2009/osb"
   xmlns:dc="http://purl.org/dc/elements/1.1/"
   xmlns:cc="http://creativecommons.org/ns#"
   xmlns:rdf="http://www.w3.org/1999/02/22-rdf-syntax-ns#"
   xmlns:svg="http://www.w3.org/2000/svg"
   xmlns="http://www.w3.org/2000/svg"
   xmlns:sodipodi="http://sodipodi.sourceforge.net/DTD/sodipodi-0.dtd"
   xmlns:inkscape="http://www.inkscape.org/namespaces/inkscape"
   width="281.23441mm"
   height="205.51903mm"
   viewBox="0 0 281.23442 205.51903"
   version="1.1"
   id="svg8"
   inkscape:version="0.92.5 (2060ec1f9f, 2020-04-08)"
   sodipodi:docname="Blender_UI.svg"
   inkscape:export-filename="C:\Users\Yusuf\Desktop\Dokumente\RWTH\[12.Semester]\M3\03\UI_Mockup\1_Blender.png"
   inkscape:export-xdpi="500.04324"
   inkscape:export-ydpi="500.04324">
  <defs
     id="defs2">
    <linearGradient
       id="linearGradient6406"
       osb:paint="solid">
      <stop
         style="stop-color:#404040;stop-opacity:1;"
         offset="0"
         id="stop6404" />
    </linearGradient>
  </defs>
  <sodipodi:namedview
     id="base"
     pagecolor="#ffffff"
     bordercolor="#666666"
     borderopacity="1.0"
     inkscape:pageopacity="0.0"
     inkscape:pageshadow="2"
     inkscape:zoom="0.5"
     inkscape:cx="363.468"
     inkscape:cy="202.80248"
     inkscape:document-units="mm"
     inkscape:current-layer="layer1"
     showgrid="false"
     units="mm"
     inkscape:window-width="1920"
     inkscape:window-height="1017"
     inkscape:window-x="-8"
     inkscape:window-y="-8"
     inkscape:window-maximized="1"
     fit-margin-top="0"
     fit-margin-left="0"
     fit-margin-right="0"
     fit-margin-bottom="0" />
  <metadata
     id="metadata5">
    <rdf:RDF>
      <cc:Work
         rdf:about="">
        <dc:format>image/svg+xml</dc:format>
        <dc:type
           rdf:resource="http://purl.org/dc/dcmitype/StillImage" />
        <dc:title></dc:title>
      </cc:Work>
    </rdf:RDF>
  </metadata>
  <g
     inkscape:label="Ebene 1"
     inkscape:groupmode="layer"
     id="layer1"
     transform="translate(148.64694,-35.576781)">
    <text
       xml:space="preserve"
       style="font-style:normal;font-weight:normal;font-size:10.58333302px;line-height:125%;font-family:sans-serif;letter-spacing:0px;word-spacing:0px;fill:#000000;fill-opacity:1;stroke:none;stroke-width:0.26458332px;stroke-linecap:butt;stroke-linejoin:miter;stroke-opacity:1"
       x="-179.93387"
       y="169.12842"
       id="text4601"><tspan
         sodipodi:role="line"
         id="tspan4599"
         x="-179.93387"
         y="178.78392"
         style="font-size:7.05555534px;stroke-width:0.26458332px" /></text>
    <g
       id="g4942"
       transform="translate(49.691156,-19.623226)">
      <path
         inkscape:connector-curvature="0"
         id="path4529"
         d="M -197.8381,70.617583 H 82.598663 V 81.013008 H -197.86091 Z"
         style="fill:#727272;fill-opacity:1;fill-rule:evenodd;stroke:#000000;stroke-width:0.59528381;stroke-linecap:butt;stroke-linejoin:miter;stroke-miterlimit:4;stroke-dasharray:none;stroke-opacity:1" />
      <path
         inkscape:connector-curvature="0"
         id="path4531"
         d="m -180.72765,70.622715 v 10.664054 h 17.70923 V 70.529171 Z"
         style="opacity:1;fill:#f8ff11;fill-opacity:1;fill-rule:evenodd;stroke:#000000;stroke-width:0.273;stroke-linecap:butt;stroke-linejoin:miter;stroke-miterlimit:4;stroke-dasharray:none;stroke-opacity:1" />
      <path
         inkscape:connector-curvature="0"
         id="path4533"
         d="m -163.01381,70.533713 h 23.37421 v 10.65497 h -23.2665 z"
         style="fill:none;fill-rule:evenodd;stroke:#000000;stroke-width:0.28379664px;stroke-linecap:butt;stroke-linejoin:miter;stroke-opacity:1" />
      <path
         inkscape:connector-curvature="0"
         id="path4535"
         d="m -139.53431,70.539091 h 27.83323 v 10.737758 h -27.83323 z"
         style="fill:none;fill-rule:evenodd;stroke:#000000;stroke-width:0.2844258px;stroke-linecap:butt;stroke-linejoin:miter;stroke-opacity:1" />
      <path
         inkscape:connector-curvature="0"
         id="path4537"
         d="m -111.7992,70.529171 h 16.83795 v 10.664054 h -16.7444 z"
         style="fill:none;fill-rule:evenodd;stroke:#000000;stroke-width:0.26458332px;stroke-linecap:butt;stroke-linejoin:miter;stroke-opacity:1" />
      <path
         inkscape:connector-curvature="0"
         id="path4541"
         d="M -180.74541,81.268983 V 220.28859 h 80.48609 V 81.327287 Z"
         style="fill:none;fill-rule:evenodd;stroke:#000000;stroke-width:0.22906831px;stroke-linecap:butt;stroke-linejoin:miter;stroke-opacity:1" />
      <path
         inkscape:connector-curvature="0"
         id="path4543"
         d="m -180.72765,81.286769 v 8.544486 h 80.45057 v -8.995833 z"
         style="fill:none;fill-rule:evenodd;stroke:#000000;stroke-width:0.26458332px;stroke-linecap:butt;stroke-linejoin:miter;stroke-opacity:1" />
      <path
         style="fill:none;fill-rule:evenodd;stroke:#000000;stroke-width:0.26458332px;stroke-linecap:butt;stroke-linejoin:miter;stroke-opacity:1"
         d="m -180.72765,90.282602 v 8.544486 h 80.45057 v -8.995833 z"
         id="path4545"
         inkscape:connector-curvature="0" />
      <path
         inkscape:connector-curvature="0"
         id="path4547"
         d="m -180.72765,99.278435 v 8.544485 h 80.45057 v -8.995832 z"
         style="fill:none;fill-rule:evenodd;stroke:#000000;stroke-width:0.26458332px;stroke-linecap:butt;stroke-linejoin:miter;stroke-opacity:1" />
      <path
         style="fill:none;fill-rule:evenodd;stroke:#000000;stroke-width:0.26458332px;stroke-linecap:butt;stroke-linejoin:miter;stroke-opacity:1"
         d="m -180.72765,108.27427 v 8.54448 h 80.45057 v -8.99583 z"
         id="path4549"
         inkscape:connector-curvature="0" />
      <path
         inkscape:connector-curvature="0"
         id="path4551"
         d="m -180.72765,117.2701 v 8.54448 h 80.45057 v -8.99583 z"
         style="fill:none;fill-rule:evenodd;stroke:#000000;stroke-width:0.26458332px;stroke-linecap:butt;stroke-linejoin:miter;stroke-opacity:1" />
      <path
         style="fill:none;fill-rule:evenodd;stroke:#000000;stroke-width:0.26458332px;stroke-linecap:butt;stroke-linejoin:miter;stroke-opacity:1"
         d="m -180.72765,126.26593 v 8.54448 h 80.45057 v -8.99583 z"
         id="path4553"
         inkscape:connector-curvature="0" />
      <path
         inkscape:connector-curvature="0"
         id="path4555"
         d="m -180.72765,135.26176 v 8.54448 h 80.45057 v -8.99583 z"
         style="fill:#f8ff11;fill-opacity:1;fill-rule:evenodd;stroke:#000000;stroke-width:0.26458332px;stroke-linecap:butt;stroke-linejoin:miter;stroke-opacity:1" />
      <path
         style="fill:none;fill-rule:evenodd;stroke:#000000;stroke-width:0.26458332px;stroke-linecap:butt;stroke-linejoin:miter;stroke-opacity:1"
         d="m -180.72765,144.25759 v 8.54448 h 80.45057 v -8.99583 z"
         id="path4557"
         inkscape:connector-curvature="0" />
      <path
         inkscape:connector-curvature="0"
         id="path4559"
         d="m -180.72765,153.25342 v 8.54448 h 80.45057 v -8.99583 z"
         style="fill:none;fill-rule:evenodd;stroke:#000000;stroke-width:0.26458332px;stroke-linecap:butt;stroke-linejoin:miter;stroke-opacity:1" />
      <path
         style="fill:none;fill-rule:evenodd;stroke:#000000;stroke-width:0.26458332px;stroke-linecap:butt;stroke-linejoin:miter;stroke-opacity:1"
         d="m -180.72765,162.24925 v 8.54448 h 80.45057 v -8.99583 z"
         id="path4561"
         inkscape:connector-curvature="0" />
      <text
         id="text4565"
         y="88.695099"
         x="-179.93387"
         style="font-style:normal;font-weight:normal;font-size:10.58333302px;line-height:125%;font-family:sans-serif;letter-spacing:0px;word-spacing:0px;fill:#999999;fill-opacity:1;stroke:none;stroke-width:0.26458332px;stroke-linecap:butt;stroke-linejoin:miter;stroke-opacity:1"
         xml:space="preserve"><tspan
           style="font-style:normal;font-variant:normal;font-weight:normal;font-stretch:normal;font-size:7.05555534px;font-family:Calibri;-inkscape-font-specification:Calibri;fill:#999999;stroke-width:0.26458332px"
           y="88.695099"
           x="-179.93387"
           id="tspan4563"
           sodipodi:role="line">New</tspan></text>
      <text
         xml:space="preserve"
         style="font-style:normal;font-weight:normal;font-size:10.58333302px;line-height:125%;font-family:sans-serif;letter-spacing:0px;word-spacing:0px;fill:#999999;fill-opacity:1;stroke:none;stroke-width:0.26458332px;stroke-linecap:butt;stroke-linejoin:miter;stroke-opacity:1"
         x="-179.93387"
         y="97.161766"
         id="text4569"><tspan
           sodipodi:role="line"
           id="tspan4567"
           x="-179.93387"
           y="97.161766"
           style="font-style:normal;font-variant:normal;font-weight:normal;font-stretch:normal;font-size:7.05555534px;font-family:Calibri;-inkscape-font-specification:Calibri;fill:#999999;stroke-width:0.26458332px">Open...</tspan></text>
      <text
         xml:space="preserve"
         style="font-style:normal;font-weight:normal;font-size:10.58333302px;line-height:125%;font-family:sans-serif;letter-spacing:0px;word-spacing:0px;fill:#999999;fill-opacity:1;stroke:none;stroke-width:0.26458332px;stroke-linecap:butt;stroke-linejoin:miter;stroke-opacity:1"
         x="-179.93387"
         y="106.42218"
         id="text4573"><tspan
           sodipodi:role="line"
           id="tspan4571"
           x="-179.93387"
           y="106.42218"
           style="font-style:normal;font-variant:normal;font-weight:normal;font-stretch:normal;font-size:7.05555534px;font-family:Calibri;-inkscape-font-specification:Calibri;fill:#999999;stroke-width:0.26458332px">Open Recent...</tspan></text>
      <text
         id="text4577"
         y="114.88885"
         x="-179.93387"
         style="font-style:normal;font-weight:normal;font-size:10.58333302px;line-height:125%;font-family:sans-serif;letter-spacing:0px;word-spacing:0px;fill:#999999;fill-opacity:1;stroke:none;stroke-width:0.26458332px;stroke-linecap:butt;stroke-linejoin:miter;stroke-opacity:1"
         xml:space="preserve"><tspan
           style="font-style:normal;font-variant:normal;font-weight:normal;font-stretch:normal;font-size:7.05555534px;font-family:Calibri;-inkscape-font-specification:Calibri;fill:#999999;stroke-width:0.26458332px"
           y="114.88885"
           x="-179.93387"
           id="tspan4575"
           sodipodi:role="line">Revert</tspan></text>
      <text
         xml:space="preserve"
         style="font-style:normal;font-weight:normal;font-size:10.58333302px;line-height:125%;font-family:sans-serif;letter-spacing:0px;word-spacing:0px;fill:#999999;fill-opacity:1;stroke:none;stroke-width:0.26458332px;stroke-linecap:butt;stroke-linejoin:miter;stroke-opacity:1"
         x="-179.93387"
         y="124.94302"
         id="text4581"><tspan
           sodipodi:role="line"
           id="tspan4579"
           x="-179.93387"
           y="124.94302"
           style="font-style:normal;font-variant:normal;font-weight:normal;font-stretch:normal;font-size:7.05555534px;font-family:Calibri;-inkscape-font-specification:Calibri;fill:#999999;stroke-width:0.26458332px">Recover Last Session</tspan></text>
      <text
         id="text4585"
         y="133.40968"
         x="-179.93387"
         style="font-style:normal;font-weight:normal;font-size:10.58333302px;line-height:125%;font-family:sans-serif;letter-spacing:0px;word-spacing:0px;fill:#999999;fill-opacity:1;stroke:none;stroke-width:0.26458332px;stroke-linecap:butt;stroke-linejoin:miter;stroke-opacity:1"
         xml:space="preserve"><tspan
           style="font-style:normal;font-variant:normal;font-weight:normal;font-stretch:normal;font-size:7.05555534px;font-family:Calibri;-inkscape-font-specification:Calibri;fill:#999999;stroke-width:0.26458332px"
           y="133.40968"
           x="-179.93387"
           id="tspan4583"
           sodipodi:role="line">Recover Auto Save...</tspan></text>
      <text
         id="text4589"
         y="142.67009"
         x="-179.93387"
         style="font-style:normal;font-weight:normal;font-size:10.58333302px;line-height:125%;font-family:sans-serif;letter-spacing:0px;word-spacing:0px;fill:#000000;fill-opacity:1;stroke:none;stroke-width:0.26458332px;stroke-linecap:butt;stroke-linejoin:miter;stroke-opacity:1"
         xml:space="preserve"><tspan
           style="font-style:normal;font-variant:normal;font-weight:normal;font-stretch:normal;font-size:7.05555534px;font-family:Calibri;-inkscape-font-specification:Calibri;fill:#000000;stroke-width:0.26458332px"
           y="142.67009"
           x="-179.93387"
           id="tspan4587"
           sodipodi:role="line">Save</tspan></text>
      <text
         xml:space="preserve"
         style="font-style:normal;font-weight:normal;font-size:10.58333302px;line-height:125%;font-family:sans-serif;letter-spacing:0px;word-spacing:0px;fill:#999999;fill-opacity:1;stroke:none;stroke-width:0.26458332px;stroke-linecap:butt;stroke-linejoin:miter;stroke-opacity:1"
         x="-179.93387"
         y="151.13676"
         id="text4593"><tspan
           sodipodi:role="line"
           id="tspan4591"
           x="-179.93387"
           y="151.13676"
           style="font-style:normal;font-variant:normal;font-weight:normal;font-stretch:normal;font-size:7.05555534px;font-family:Calibri;-inkscape-font-specification:Calibri;fill:#999999;stroke-width:0.26458332px">Save As...</tspan></text>
      <text
         xml:space="preserve"
         style="font-style:normal;font-weight:normal;font-size:10.58333302px;line-height:125%;font-family:sans-serif;letter-spacing:0px;word-spacing:0px;fill:#999999;fill-opacity:1;stroke:none;stroke-width:0.26458332px;stroke-linecap:butt;stroke-linejoin:miter;stroke-opacity:1"
         x="-179.93387"
         y="160.66174"
         id="text4597"><tspan
           sodipodi:role="line"
           id="tspan4595"
           x="-179.93387"
           y="160.66174"
           style="font-style:normal;font-variant:normal;font-weight:normal;font-stretch:normal;font-size:7.05555534px;font-family:Calibri;-inkscape-font-specification:Calibri;fill:#999999;stroke-width:0.26458332px">Save Copy...</tspan></text>
      <ellipse
         ry="0.98051476"
         rx="0.92604178"
         cy="176.27214"
         cx="-140.89064"
         id="path4603"
         style="opacity:1;fill:#0a0a0a;fill-opacity:1;fill-rule:evenodd;stroke:none;stroke-width:0.10294119;stroke-linecap:round;stroke-miterlimit:4;stroke-dasharray:none;stroke-opacity:1;paint-order:stroke fill markers" />
      <ellipse
         style="opacity:1;fill:#0a0a0a;fill-opacity:1;fill-rule:evenodd;stroke:none;stroke-width:0.10294119;stroke-linecap:round;stroke-miterlimit:4;stroke-dasharray:none;stroke-opacity:1;paint-order:stroke fill markers"
         id="ellipse4605"
         cx="-140.89064"
         cy="181.82838"
         rx="0.92604178"
         ry="0.98051476" />
      <ellipse
         style="opacity:1;fill:#0a0a0a;fill-opacity:1;fill-rule:evenodd;stroke:none;stroke-width:0.10294119;stroke-linecap:round;stroke-miterlimit:4;stroke-dasharray:none;stroke-opacity:1;paint-order:stroke fill markers"
         id="ellipse4607"
         cx="-140.89064"
         cy="188.17839"
         rx="0.92604178"
         ry="0.98051476" />
      <ellipse
         ry="0.98051476"
         rx="0.92604178"
         cy="193.73463"
         cx="-140.89064"
         id="ellipse4609"
         style="opacity:1;fill:#0a0a0a;fill-opacity:1;fill-rule:evenodd;stroke:none;stroke-width:0.10294119;stroke-linecap:round;stroke-miterlimit:4;stroke-dasharray:none;stroke-opacity:1;paint-order:stroke fill markers" />
      <ellipse
         style="opacity:1;fill:#0a0a0a;fill-opacity:1;fill-rule:evenodd;stroke:none;stroke-width:0.10294119;stroke-linecap:round;stroke-miterlimit:4;stroke-dasharray:none;stroke-opacity:1;paint-order:stroke fill markers"
         id="ellipse4611"
         cx="-140.89064"
         cy="198.76172"
         rx="0.92604178"
         ry="0.98051476" />
      <ellipse
         ry="0.98051476"
         rx="0.92604178"
         cy="204.31796"
         cx="-140.89064"
         id="ellipse4613"
         style="opacity:1;fill:#0a0a0a;fill-opacity:1;fill-rule:evenodd;stroke:none;stroke-width:0.10294119;stroke-linecap:round;stroke-miterlimit:4;stroke-dasharray:none;stroke-opacity:1;paint-order:stroke fill markers" />
      <ellipse
         ry="0.98051476"
         rx="0.92604178"
         cy="210.66797"
         cx="-140.89064"
         id="ellipse4615"
         style="opacity:1;fill:#0a0a0a;fill-opacity:1;fill-rule:evenodd;stroke:none;stroke-width:0.10294119;stroke-linecap:round;stroke-miterlimit:4;stroke-dasharray:none;stroke-opacity:1;paint-order:stroke fill markers" />
      <ellipse
         style="opacity:1;fill:#0a0a0a;fill-opacity:1;fill-rule:evenodd;stroke:none;stroke-width:0.10294119;stroke-linecap:round;stroke-miterlimit:4;stroke-dasharray:none;stroke-opacity:1;paint-order:stroke fill markers"
         id="ellipse4617"
         cx="-140.89064"
         cy="216.22421"
         rx="0.92604178"
         ry="0.98051476" />
      <text
         id="text4621"
         y="78.905518"
         x="-177.42039"
         style="font-style:normal;font-weight:normal;font-size:10.58333302px;line-height:125%;font-family:sans-serif;letter-spacing:0px;word-spacing:0px;fill:#000000;fill-opacity:1;stroke:none;stroke-width:0.26458332px;stroke-linecap:butt;stroke-linejoin:miter;stroke-opacity:1"
         xml:space="preserve"><tspan
           style="font-style:normal;font-variant:normal;font-weight:normal;font-stretch:normal;font-size:7.05555534px;font-family:Calibri;-inkscape-font-specification:Calibri;stroke-width:0.26458332px"
           y="78.905518"
           x="-177.42039"
           id="tspan4619"
           sodipodi:role="line">File</tspan></text>
      <text
         xml:space="preserve"
         style="font-style:normal;font-weight:normal;font-size:10.58333302px;line-height:125%;font-family:sans-serif;letter-spacing:0px;word-spacing:0px;fill:#000000;fill-opacity:1;stroke:none;stroke-width:0.26458332px;stroke-linecap:butt;stroke-linejoin:miter;stroke-opacity:1"
         x="-161.73151"
         y="78.905518"
         id="text4625"><tspan
           sodipodi:role="line"
           id="tspan4623"
           x="-161.73151"
           y="78.905518"
           style="font-style:normal;font-variant:normal;font-weight:normal;font-stretch:normal;font-size:7.05555534px;font-family:Calibri;-inkscape-font-specification:Calibri;stroke-width:0.26458332px">Render</tspan></text>
      <text
         id="text4629"
         y="78.905518"
         x="-137.53841"
         style="font-style:normal;font-weight:normal;font-size:10.58333302px;line-height:125%;font-family:sans-serif;letter-spacing:0px;word-spacing:0px;fill:#000000;fill-opacity:1;stroke:none;stroke-width:0.26458332px;stroke-linecap:butt;stroke-linejoin:miter;stroke-opacity:1"
         xml:space="preserve"><tspan
           style="font-style:normal;font-variant:normal;font-weight:normal;font-stretch:normal;font-size:7.05555534px;font-family:Calibri;-inkscape-font-specification:Calibri;stroke-width:0.26458332px"
           y="78.905518"
           x="-137.53841"
           id="tspan4627"
           sodipodi:role="line">Window</tspan></text>
      <text
         xml:space="preserve"
         style="font-style:normal;font-weight:normal;font-size:10.58333302px;line-height:125%;font-family:sans-serif;letter-spacing:0px;word-spacing:0px;fill:#000000;fill-opacity:1;stroke:none;stroke-width:0.26458332px;stroke-linecap:butt;stroke-linejoin:miter;stroke-opacity:1"
         x="-109.70533"
         y="78.905518"
         id="text4633"><tspan
           sodipodi:role="line"
           id="tspan4631"
           x="-109.70533"
           y="78.905518"
           style="font-style:normal;font-variant:normal;font-weight:normal;font-stretch:normal;font-size:7.05555534px;font-family:Calibri;-inkscape-font-specification:Calibri;stroke-width:0.26458332px">Help</tspan></text>
      <path
         inkscape:connector-curvature="0"
         id="path4635"
         d="m -197.95069,80.910673 0.0228,179.605577 H 82.688435 V 80.910673 Z"
         style="fill:none;fill-rule:evenodd;stroke:#000000;stroke-width:0.40556929;stroke-linecap:butt;stroke-linejoin:miter;stroke-miterlimit:4;stroke-dasharray:none;stroke-opacity:1" />
      <path
         sodipodi:nodetypes="ccccc"
         inkscape:connector-curvature="0"
         id="path4790"
         d="M -197.83827,70.617757 V 55.699832 H 82.378666 l 0.01655,14.917925 z"
         style="fill:#ea7600;fill-opacity:1;fill-rule:evenodd;stroke:#000000;stroke-width:0.99964923;stroke-linecap:butt;stroke-linejoin:miter;stroke-miterlimit:4;stroke-dasharray:none;stroke-opacity:1" />
      <text
         id="text4794"
         y="67.442581"
         x="-195.72147"
         style="font-style:normal;font-weight:normal;font-size:10.58333302px;line-height:125%;font-family:sans-serif;letter-spacing:0px;word-spacing:0px;fill:#000000;fill-opacity:1;stroke:none;stroke-width:0.26458332px;stroke-linecap:butt;stroke-linejoin:miter;stroke-opacity:1"
         xml:space="preserve"><tspan
           style="font-style:normal;font-variant:normal;font-weight:normal;font-stretch:normal;font-size:12.69999981px;font-family:Calibri;-inkscape-font-specification:Calibri;stroke-width:0.26458332px"
           y="67.442581"
           x="-195.72147"
           id="tspan4792"
           sodipodi:role="line">Blender</tspan></text>
      <path
         inkscape:connector-curvature="0"
         id="path4796"
         d="M 82.608646,70.699751 H 67.197047 V 55.692888 h 15.364507 z"
         style="fill:none;fill-rule:evenodd;stroke:#000000;stroke-width:0.48484057;stroke-linecap:butt;stroke-linejoin:miter;stroke-miterlimit:4;stroke-dasharray:none;stroke-opacity:1" />
      <path
         style="fill:none;fill-rule:evenodd;stroke:#000000;stroke-width:0.48484057;stroke-linecap:butt;stroke-linejoin:miter;stroke-miterlimit:4;stroke-dasharray:none;stroke-opacity:1"
         d="M 67.197047,70.699751 H 51.785448 V 55.692888 h 15.364507 z"
         id="path4798"
         inkscape:connector-curvature="0" />
      <path
         inkscape:connector-curvature="0"
         id="path4800"
         d="M 51.785448,70.699751 H 36.373849 V 55.692888 h 15.364507 z"
         style="fill:none;fill-rule:evenodd;stroke:#000000;stroke-width:0.48484057;stroke-linecap:butt;stroke-linejoin:miter;stroke-miterlimit:4;stroke-dasharray:none;stroke-opacity:1" />
      <g
         style="stroke-width:1;stroke-miterlimit:4;stroke-dasharray:none"
         id="g4810">
        <path
           style="fill:none;fill-rule:evenodd;stroke:#000000;stroke-width:1;stroke-linecap:butt;stroke-linejoin:miter;stroke-miterlimit:4;stroke-dasharray:none;stroke-opacity:1"
           d="m 79.242707,58.610423 -9.789583,9.789582"
           id="path4802"
           inkscape:connector-curvature="0" />
        <path
           inkscape:connector-curvature="0"
           id="path4806"
           d="m 69.421026,58.82961 9.789582,9.789583"
           style="fill:none;fill-rule:evenodd;stroke:#000000;stroke-width:1;stroke-linecap:butt;stroke-linejoin:miter;stroke-miterlimit:4;stroke-dasharray:none;stroke-opacity:1" />
      </g>
      <g
         transform="translate(0,0.52916663)"
         id="g4820">
        <path
           style="fill:none;fill-rule:evenodd;stroke:#000000;stroke-width:1;stroke-linecap:butt;stroke-linejoin:miter;stroke-miterlimit:4;stroke-dasharray:none;stroke-opacity:1"
           d="m 55.033333,61.123963 v 5.820834 h 5.953125 v -5.805472 z"
           id="path4812"
           inkscape:connector-curvature="0"
           sodipodi:nodetypes="ccccc" />
        <path
           style="fill:none;fill-rule:evenodd;stroke:#000000;stroke-width:1;stroke-linecap:butt;stroke-linejoin:miter;stroke-miterlimit:4;stroke-dasharray:none;stroke-opacity:1"
           d="M 58.009895,61.256255 V 58.1474 h 6.217708 v 6.350001 h -2.976562"
           id="path4816"
           inkscape:connector-curvature="0" />
      </g>
      <path
         inkscape:connector-curvature="0"
         id="path4822"
         d="M 48.418749,63.637506 H 39.6875"
         style="fill:none;fill-rule:evenodd;stroke:#000000;stroke-width:1;stroke-linecap:butt;stroke-linejoin:miter;stroke-miterlimit:4;stroke-dasharray:none;stroke-opacity:1" />
      <g
         id="g6459"
         transform="matrix(0.69129978,0,0,0.69129978,24.634251,19.059026)">
        <g
           id="g4784"
           transform="translate(-142.3461,-46.037509)">
          <path
             sodipodi:nodetypes="cc"
             inkscape:connector-curvature="0"
             id="path4669"
             d="m 162.20587,152.94173 c 10.87772,11.61863 28.73879,21.24202 57.06205,27.87621"
             style="fill:none;fill-rule:evenodd;stroke:#000000;stroke-width:1;stroke-linecap:butt;stroke-linejoin:miter;stroke-miterlimit:4;stroke-dasharray:none;stroke-opacity:1" />
          <path
             sodipodi:nodetypes="cc"
             inkscape:connector-curvature="0"
             id="path4671"
             d="m 219.26792,180.81794 c -6.51102,14.08996 -13.85856,28.312 -33.53042,44.47998"
             style="fill:none;fill-rule:evenodd;stroke:#000000;stroke-width:1;stroke-linecap:butt;stroke-linejoin:miter;stroke-miterlimit:4;stroke-dasharray:none;stroke-opacity:1" />
          <path
             sodipodi:nodetypes="cc"
             inkscape:connector-curvature="0"
             id="path4673"
             d="m 185.7375,225.29792 c -20.64888,14.30004 -38.68601,17.63072 -55.82708,17.19792"
             style="fill:none;fill-rule:evenodd;stroke:#000000;stroke-width:1;stroke-linecap:butt;stroke-linejoin:miter;stroke-miterlimit:4;stroke-dasharray:none;stroke-opacity:1" />
          <path
             inkscape:connector-curvature="0"
             id="path4675"
             d="M 129.91042,242.49584 141.55208,227.15"
             style="fill:none;fill-rule:evenodd;stroke:#000000;stroke-width:1;stroke-linecap:butt;stroke-linejoin:miter;stroke-miterlimit:4;stroke-dasharray:none;stroke-opacity:1" />
          <path
             sodipodi:nodetypes="cc"
             inkscape:connector-curvature="0"
             id="path4677"
             d="m 141.55208,227.15 c 9.48,-1.04068 19.81869,-1.73343 29.89792,-18.25625"
             style="fill:none;fill-rule:evenodd;stroke:#000000;stroke-width:1;stroke-linecap:butt;stroke-linejoin:miter;stroke-miterlimit:4;stroke-dasharray:none;stroke-opacity:1" />
          <path
             sodipodi:nodetypes="cc"
             inkscape:connector-curvature="0"
             id="path4679"
             d="m 171.45,208.89375 c 4.94972,-11.77183 1.23209,-20.83511 -5.02709,-29.10416"
             style="fill:none;fill-rule:evenodd;stroke:#000000;stroke-width:1;stroke-linecap:butt;stroke-linejoin:miter;stroke-miterlimit:4;stroke-dasharray:none;stroke-opacity:1" />
          <path
             sodipodi:nodetypes="cc"
             inkscape:connector-curvature="0"
             id="path4681"
             d="m 166.42291,179.78959 c -6.63596,-5.82707 -10.06819,-6.31459 -14.81666,-8.99584"
             style="fill:none;fill-rule:evenodd;stroke:#000000;stroke-width:1;stroke-linecap:butt;stroke-linejoin:miter;stroke-miterlimit:4;stroke-dasharray:none;stroke-opacity:1" />
          <path
             sodipodi:nodetypes="cc"
             inkscape:connector-curvature="0"
             id="path4683"
             d="m 162.20587,152.94173 c -1.61893,-5.55994 -3.89358,-7.79895 -5.44025,-9.53235"
             style="fill:none;fill-rule:evenodd;stroke:#000000;stroke-width:1;stroke-linecap:butt;stroke-linejoin:miter;stroke-miterlimit:4;stroke-dasharray:none;stroke-opacity:1" />
          <path
             sodipodi:nodetypes="cc"
             inkscape:connector-curvature="0"
             id="path4685"
             d="m 156.76562,143.40938 c -2.86611,-1.45562 -6.51066,-1.35437 -10.05416,-1.45521"
             style="fill:none;fill-rule:evenodd;stroke:#000000;stroke-width:1;stroke-linecap:butt;stroke-linejoin:miter;stroke-miterlimit:4;stroke-dasharray:none;stroke-opacity:1" />
          <path
             inkscape:connector-curvature="0"
             id="path4687"
             d="m 146.71146,141.95417 -5.68855,7.27604 -5.29166,8.86355 1.85208,5.15937 -42.862498,68.13021 -43.920833,66.93958 -38.629166,50.27083 -17.1979163,18.78542 -14.5520827,14.81666 -0.74334,1.37946 0.09354,2.10473 0.724968,1.49673 3.390982,2.8531 3.11035,1.61362 3.4143677,0.0233 3.367596,-2.57246 33.4727813,-39.17762 34.528125,-46.43438 29.765624,-44.84687 32.808342,-50.93229 18.9177,-30.95625 4.63021,-6.74688 3.70417,0.79375"
             style="fill:none;fill-rule:evenodd;stroke:#000000;stroke-width:1;stroke-linecap:butt;stroke-linejoin:miter;stroke-miterlimit:4;stroke-dasharray:none;stroke-opacity:1" />
          <path
             inkscape:connector-curvature="0"
             id="path4689"
             d="m 151.34166,141.82188 3.04271,-3.83646 5.29167,2.38125 3.70417,3.83646 -2.38125,4.49792 -4.23334,-5.29167 z"
             style="fill:none;fill-rule:evenodd;stroke:#000000;stroke-width:1;stroke-linecap:butt;stroke-linejoin:miter;stroke-miterlimit:4;stroke-dasharray:none;stroke-opacity:1" />
          <path
             inkscape:connector-curvature="0"
             id="path4693"
             d="m 147.90208,170.00002 -5.43406,-2.37183 -4.88469,-4.37506"
             style="fill:none;fill-rule:evenodd;stroke:#000000;stroke-width:1;stroke-linecap:butt;stroke-linejoin:miter;stroke-miterlimit:4;stroke-dasharray:none;stroke-opacity:1" />
          <path
             sodipodi:nodetypes="cc"
             inkscape:connector-curvature="0"
             id="path4695"
             d="m 162.20587,152.94173 c -2.78214,6.70175 -6.58277,12.385 -10.59962,17.85204"
             style="fill:none;fill-rule:evenodd;stroke:#000000;stroke-width:1;stroke-linecap:butt;stroke-linejoin:miter;stroke-miterlimit:4;stroke-dasharray:none;stroke-opacity:1" />
          <path
             sodipodi:nodetypes="cc"
             inkscape:connector-curvature="0"
             id="path4697"
             d="m 160.99896,148.70105 c -6.17299,13.78691 -9.26658,16.18004 -13.09688,21.29897"
             style="fill:none;fill-rule:evenodd;stroke:#000000;stroke-width:0.1;stroke-linecap:butt;stroke-linejoin:miter;stroke-miterlimit:4;stroke-dasharray:none;stroke-opacity:1" />
          <path
             inkscape:connector-curvature="0"
             id="path4699"
             d="m 156.76562,143.40938 -14.2976,24.21881"
             style="fill:none;fill-rule:evenodd;stroke:#000000;stroke-width:0.1;stroke-linecap:butt;stroke-linejoin:miter;stroke-miterlimit:4;stroke-dasharray:none;stroke-opacity:1" />
          <path
             sodipodi:nodetypes="cc"
             inkscape:connector-curvature="0"
             id="path4701"
             d="m 151.34166,141.82188 c -7.29691,9.5157 -10.30993,15.28299 -13.75833,21.43125"
             style="fill:none;fill-rule:evenodd;stroke:#000000;stroke-width:0.1;stroke-linecap:butt;stroke-linejoin:miter;stroke-miterlimit:4;stroke-dasharray:none;stroke-opacity:1" />
          <path
             inkscape:connector-curvature="0"
             id="path4705"
             d="m 156.76562,143.40938 2.91042,-3.04271"
             style="fill:none;fill-rule:evenodd;stroke:#000000;stroke-width:0.1;stroke-linecap:butt;stroke-linejoin:miter;stroke-miterlimit:4;stroke-dasharray:none;stroke-opacity:1" />
          <path
             inkscape:connector-curvature="0"
             id="path4707"
             d="m 142.46802,167.62819 -39.19508,62.20698 -36.669376,56.31369 -28.437477,40.78533 -25.818235,32.17926 -28.460868,30.9164"
             style="fill:none;fill-rule:evenodd;stroke:#000000;stroke-width:0.1;stroke-linecap:butt;stroke-linejoin:miter;stroke-miterlimit:4;stroke-dasharray:none;stroke-opacity:1" />
          <path
             inkscape:connector-curvature="0"
             id="path4709"
             d="m 138.81979,164.82186 -24.6957,39.84989 -40.691789,63.23596 -33.301783,48.54951 -29.840641,37.23066 -19.4572216,21.04747 -11.0616214,10.94467"
             style="fill:none;fill-rule:evenodd;stroke:#000000;stroke-width:0.1;stroke-linecap:butt;stroke-linejoin:miter;stroke-miterlimit:4;stroke-dasharray:none;stroke-opacity:1" />
          <path
             transform="matrix(0.26458333,0,0,0.26458333,0,87)"
             inkscape:connector-curvature="0"
             id="path4711"
             d="m 502.86781,576.95212 c 3.24821,-4.3763 12.14695,-16.1395 19.77499,-26.14046 l 13.86915,-18.18356 16.13085,-2.34172 c 40.88476,-5.93528 66.96838,-22.62884 91.44924,-58.52772 21.36726,-31.33307 19.75797,-73.52893 -4.20714,-110.312 -9.85368,-15.12401 -22.71898,-25.54702 -45.69078,-37.01706 -11.26245,-5.62345 -16.10612,-9.06009 -15.10336,-10.71601 0.8119,-1.34073 6.62706,-10.30362 12.92257,-19.91754 6.29552,-9.61392 13.88474,-22.46364 16.86493,-28.55494 l 5.41854,-11.07508 11.23842,10.65118 c 36.33077,34.43239 95.34426,63.44923 172.0689,84.60598 13.65674,3.76584 25.18686,7.20338 25.62246,7.63897 1.12496,1.12498 -19.85678,42.53548 -29.70056,58.61829 -26.6672,43.56907 -74.20592,93.40423 -110.75238,116.10247 -52.19721,32.41862 -103.99577,49.32912 -158.90583,51.87746 l -26.90583,1.24868 z"
             style="opacity:1;fill:#787c94;fill-opacity:1;fill-rule:evenodd;stroke:none;stroke-width:0.75590551;stroke-linecap:round;stroke-miterlimit:4;stroke-dasharray:none;stroke-opacity:1;paint-order:stroke fill markers" />
          <path
             transform="matrix(0.26458333,0,0,0.26458333,0,87)"
             inkscape:connector-curvature="0"
             id="path4713"
             d="m 565.82908,312.93608 c -2.05355,-0.49725 -3.87286,-1.04322 -4.0429,-1.21326 -0.17004,-0.17005 3.19246,-4.74776 7.47222,-10.1727 13.25491,-16.80164 21.91027,-30.80643 31.77067,-51.40646 2.91681,-6.09372 5.51319,-11.09232 5.76973,-11.10801 0.25654,-0.0157 1.24904,2.29914 2.20556,5.14405 l 1.73912,5.17257 -4.39646,9.20443 c -6.39026,13.37864 -11.49453,22.12228 -22.43612,38.43319 -5.34815,7.97263 -10.16303,15.05253 -10.69974,15.73312 -1.1258,1.42762 -2.23414,1.45961 -7.38208,0.21307 z"
             style="opacity:1;fill:#84848e;fill-opacity:1;fill-rule:evenodd;stroke:none;stroke-width:0.26725295;stroke-linecap:round;stroke-miterlimit:4;stroke-dasharray:none;stroke-opacity:1;paint-order:stroke fill markers" />
          <path
             transform="matrix(0.26458333,0,0,0.26458333,0,87)"
             inkscape:connector-curvature="0"
             id="path4715"
             d="m 550.18889,307.17221 c -4.86136,-2.26074 -8.83884,-4.44017 -8.83884,-4.8432 0,-0.75968 45.71205,-78.55566 48.89059,-83.20545 1.65224,-2.41701 2.32323,-1.91695 8.27355,6.16599 3.56151,4.83797 6.47547,9.99861 6.47547,11.46807 0,1.46947 -4.15914,10.7863 -9.24254,20.70408 -8.87254,17.31043 -21.28603,36.12219 -31.76965,48.14464 l -4.94975,5.67629 z"
             style="opacity:1;fill:#93939c;fill-opacity:1;fill-rule:evenodd;stroke:none;stroke-width:0.5345059;stroke-linecap:round;stroke-miterlimit:4;stroke-dasharray:none;stroke-opacity:1;paint-order:stroke fill markers" />
          <path
             transform="matrix(0.26458333,0,0,0.26458333,0,87)"
             inkscape:connector-curvature="0"
             id="path4717"
             d="m 530.62239,294.005 -8.36422,-7.6584 4.12257,-7.54761 c 16.98663,-31.0992 42.04301,-67.6517 46.37458,-67.6517 4.0492,0 15.21098,3.01308 16.02181,4.32503 0.51298,0.83002 -46.94251,83.20115 -49.4507,85.8343 -0.1869,0.19623 -4.10373,-3.0895 -8.70404,-7.30162 z"
             style="opacity:1;fill:#93939c;fill-opacity:1;fill-rule:evenodd;stroke:none;stroke-width:0.5345059;stroke-linecap:round;stroke-miterlimit:4;stroke-dasharray:none;stroke-opacity:1;paint-order:stroke fill markers" />
          <path
             transform="matrix(0.26458333,0,0,0.26458333,0,87)"
             inkscape:connector-curvature="0"
             id="path4719"
             d="m 518.38801,276.1152 -2.38651,-7.4628 9.39903,-15.67108 c 5.16946,-8.61909 14.21396,-21.91865 20.09889,-29.55458 10.37523,-13.46227 10.84465,-13.86101 15.4713,-13.14195 2.62428,0.40785 5.03081,1.00095 5.34786,1.31799 0.31704,0.31704 -4.28251,7.50372 -10.22123,15.97038 -5.93872,8.46667 -15.47246,23.34889 -21.1861,33.07161 -14.99552,25.51739 -13.69865,24.30315 -16.52324,15.47043 z"
             style="opacity:1;fill:#fdfdff;fill-opacity:1;fill-rule:evenodd;stroke:none;stroke-width:0.5345059;stroke-linecap:round;stroke-miterlimit:4;stroke-dasharray:none;stroke-opacity:1;paint-order:stroke fill markers" />
          <path
             transform="matrix(0.26458333,0,0,0.26458333,0,87)"
             inkscape:connector-curvature="0"
             id="path4721"
             d="m 518.29902,276.26476 -2.54493,-7.20173 9.5178,-15.87639 c 5.23479,-8.73202 14.31768,-22.14151 20.18419,-29.79888 10.39938,-13.57396 10.78679,-13.90294 15.47622,-13.14195 2.64541,0.42929 5.08403,1.05472 5.41915,1.38984 0.33512,0.33513 -3.95079,7.07833 -9.52425,14.98489 -5.57345,7.90656 -15.11836,22.774 -21.21089,33.03873 -15.74771,26.53182 -14.30008,25.14369 -17.31729,16.60549 z"
             style="opacity:1;fill:#fdfdff;fill-opacity:1;fill-rule:evenodd;stroke:none;stroke-width:0.5345059;stroke-linecap:round;stroke-miterlimit:4;stroke-dasharray:none;stroke-opacity:1;paint-order:stroke fill markers" />
          <path
             transform="matrix(0.26458333,0,0,0.26458333,0,87)"
             inkscape:connector-curvature="0"
             id="path4723"
             d="m 518.45101,277.02098 c -1.51711,-4.15964 -2.52923,-8.16012 -2.24917,-8.88996 2.01804,-5.25892 21.13798,-34.69639 29.27286,-45.06913 l 9.94118,-12.67593 h 6.25919 c 3.44255,0 6.25918,0.19904 6.25918,0.44232 0,0.24328 -4.25441,6.43078 -9.45425,13.75 -9.04967,12.7382 -22.32726,33.84054 -32.50236,51.65668 l -4.76826,8.34901 z"
             style="opacity:1;fill:#cacacf;fill-opacity:1;fill-rule:evenodd;stroke:none;stroke-width:0.37795275;stroke-linecap:round;stroke-miterlimit:4;stroke-dasharray:none;stroke-opacity:1;paint-order:stroke fill markers" />
          <path
             transform="matrix(0.26458333,0,0,0.26458333,0,87)"
             inkscape:connector-curvature="0"
             id="path4725"
             d="m 606.4907,227.3694 c -0.87248,-1.11298 -2.3668,-3.1415 -3.32071,-4.50781 -1.52621,-2.18605 -4.26279,-5.55305 -7.87217,-9.68567 l -1.12127,-1.28382 3.9497,-4.06586 c 2.17233,-2.23623 4.04039,-4.10936 4.15124,-4.16251 0.11085,-0.0532 3.00688,2.82755 6.43562,6.40158 l 6.23406,6.49823 -3.36603,6.41473 c -1.85133,3.5281 -3.39711,6.41472 -3.43507,6.41472 -0.038,0 -0.78289,-0.91062 -1.65537,-2.02359 z"
             style="opacity:1;fill:#75757f;fill-opacity:1;fill-rule:evenodd;stroke:none;stroke-width:0.13362648;stroke-linecap:round;stroke-miterlimit:4;stroke-dasharray:none;stroke-opacity:1;paint-order:stroke fill markers" />
          <path
             transform="matrix(0.26458333,0,0,0.26458333,0,87)"
             inkscape:connector-curvature="0"
             id="path4727"
             d="m 591.02076,210.2965 c -2.51259,-1.05356 -6.67669,-2.20685 -12.8219,-3.55114 -2.45627,-0.53731 -2.69477,-0.66018 -2.26178,-1.1652 0.26622,-0.3105 2.04034,-2.55329 3.94249,-4.98397 1.90215,-2.43068 3.64713,-4.62384 3.87773,-4.87369 0.3368,-0.36492 2.08521,0.29581 8.8879,3.35875 4.65775,2.09717 8.54444,3.90969 8.6371,4.02782 0.0927,0.11813 -1.58162,2.03381 -3.72062,4.25708 l -3.88908,4.0423 z"
             style="opacity:1;fill:#a0a0a9;fill-opacity:1;fill-rule:evenodd;stroke:none;stroke-width:0.13362648;stroke-linecap:round;stroke-miterlimit:4;stroke-dasharray:none;stroke-opacity:1;paint-order:stroke fill markers" />
          <path
             transform="matrix(0.26458333,0,0,0.26458333,0,87)"
             inkscape:connector-curvature="0"
             id="path4729"
             d="m 50.317937,1024.6178 c 0.06482,-0.1548 21.364024,-26.76408 47.331569,-59.13185 l 47.213714,-58.85045 53.36597,-76.54431 53.36598,-76.54431 59.85502,-91.92388 c 32.92026,-50.55814 60.12901,-92.28794 60.46388,-92.7329 l 0.60886,-0.80901 11.40983,0.10191 11.40983,0.1019 -25.74029,39.95154 c -15.42491,23.94102 -48.26877,73.88532 -81.95631,124.62757 l -56.21602,84.67603 -64.7978,87.15092 -64.79779,87.15091 -14.032036,16.50493 -14.032032,16.5049 -11.785113,0.024 c -6.481813,0.013 -11.73208,-0.1029 -11.667262,-0.2577 z"
             style="opacity:1;fill:#72727c;fill-opacity:1;fill-rule:evenodd;stroke:none;stroke-width:0.13362648;stroke-linecap:round;stroke-miterlimit:4;stroke-dasharray:none;stroke-opacity:1;paint-order:stroke fill markers" />
          <path
             transform="matrix(0.26458333,0,0,0.26458333,0,87)"
             inkscape:connector-curvature="0"
             id="path4731"
             d="m 373.26518,567.44531 c 0,-0.22923 3.87193,-6.35454 8.60429,-13.61181 4.73235,-7.25726 41.67941,-65.6977 82.10456,-129.86764 40.42515,-64.16994 73.57569,-116.7576 73.66787,-116.86146 0.35932,-0.40489 17.34972,7.27964 17.34972,7.84706 0,0.33159 -3.41334,5.5854 -7.58519,11.67513 -4.17186,6.08974 -23.4313,37.00539 -42.79876,68.70145 -19.36745,31.69606 -51.83095,83.47228 -72.14109,115.05826 l -36.92754,57.42907 -11.13693,0.0233 c -6.12532,0.0129 -11.13693,-0.16416 -11.13693,-0.39339 z"
             style="opacity:1;fill:#72727c;fill-opacity:1;fill-rule:evenodd;stroke:none;stroke-width:0.26725295;stroke-linecap:round;stroke-miterlimit:4;stroke-dasharray:none;stroke-opacity:1;paint-order:stroke fill markers" />
          <path
             transform="matrix(0.26458333,0,0,0.26458333,0,87)"
             inkscape:connector-curvature="0"
             id="path4733"
             d="m -53.967958,1146.4134 -4.736832,-2.6612 52.3774849,-56.8979 c 28.8076181,-31.2939 53.3721541,-58.0116 54.5878611,-59.3728 l 2.210374,-2.4749 11.122252,0.3536 11.122252,0.3535 -45.296977,53.033 c -56.321432,65.9403 -52.026778,61.0968 -58.630318,66.1236 l -5.561407,4.2336 -6.228929,-0.015 c -5.878605,-0.014 -6.495336,-0.1643 -10.965761,-2.6758 z"
             style="opacity:1;fill:#72727c;fill-opacity:1;fill-rule:evenodd;stroke:none;stroke-width:0.26725295;stroke-linecap:round;stroke-miterlimit:4;stroke-dasharray:none;stroke-opacity:1;paint-order:stroke fill markers" />
          <path
             transform="matrix(0.26458333,0,0,0.26458333,0,87)"
             inkscape:connector-curvature="0"
             id="path4735"
             d="m -68.406722,1134.9887 -6.75455,-6.1693 32.939537,-33.3307 c 54.950352,-55.6028 78.46202,-82.2649 137.858526,-156.33066 47.621729,-59.38294 67.259729,-86.05308 120.021629,-163 65.89458,-96.09936 196.0772,-296.96293 265.72702,-410 22.3669,-36.3 41.44522,-66.86728 42.39628,-67.92728 1.06866,-1.19106 3.70364,0.0472 6.898,3.24152 l 5.16878,5.16878 -73.36482,116.4464 C 288.9429,698.53558 175.30778,866.45806 93.627951,968.15804 52.661029,1019.1662 -55.797279,1141.158 -60.179741,1141.158 c -0.809837,0 -4.511979,-2.7762 -8.226981,-6.1693 z"
             style="opacity:1;fill:#9d9da5;fill-opacity:1;fill-rule:evenodd;stroke:none;stroke-width:0.75590551;stroke-linecap:round;stroke-miterlimit:4;stroke-dasharray:none;stroke-opacity:1;paint-order:stroke fill markers" />
          <path
             transform="matrix(0.26458333,0,0,0.26458333,0,87)"
             inkscape:connector-curvature="0"
             id="path4737"
             d="m 112.02227,906.36009 c 0,-0.0968 18.42562,-24.16053 40.94582,-53.47495 l 40.94582,-53.29898 83.26243,-126.92567 c 76.661,-116.86242 85.65575,-130.73092 113.44893,-174.92054 l 30.18651,-47.99487 h 3.32788 c 2.51892,0 3.28581,0.10743 3.1548,0.44194 -0.0952,0.24307 -33.85714,52.78552 -75.02654,116.76101 l -74.85345,116.31906 -62.79333,91.57033 -62.79333,91.57033 -16.05455,20.06415 -16.05455,20.06416 h -3.84822 c -2.11652,0 -3.84822,-0.0792 -3.84822,-0.17597 z"
             style="opacity:1;fill:#bcbcbd;fill-opacity:1;fill-rule:evenodd;stroke:none;stroke-width:0.13362648;stroke-linecap:round;stroke-miterlimit:4;stroke-dasharray:none;stroke-opacity:1;paint-order:stroke fill markers" />
          <path
             transform="matrix(0.26458333,0,0,0.26458333,0,87)"
             inkscape:connector-curvature="0"
             id="path4739"
             d="m -0.72163519,1042.6324 c 0.0315107,-0.051 10.88901819,-11.9242 24.12779419,-26.3849 l 24.070502,-26.29217 23.578153,-30.6919 c 12.967984,-16.88055 23.584992,-30.70228 23.593354,-30.71496 0.0084,-0.0127 1.715246,-0.0127 3.793071,0 l 3.777861,0.0231 -31.700003,39.55378 -31.700002,39.55375 -16.19197,17.5221 -16.1919691,17.5221 -3.6070416,9e-4 c -2.49426006,9e-4 -3.58936684,-0.028 -3.54974949,-0.092 z"
             style="opacity:1;fill:#bcbcbd;fill-opacity:1;fill-rule:evenodd;stroke:none;stroke-width:0.03340662;stroke-linecap:round;stroke-miterlimit:4;stroke-dasharray:none;stroke-opacity:1;paint-order:stroke fill markers" />
          <path
             transform="matrix(0.26458333,0,0,0.26458333,0,87)"
             inkscape:connector-curvature="0"
             id="path4741"
             d="m 103.3393,917.45387 8.38455,-10.94961 4.00755,-0.0106 4.00755,-0.0105 -1.3559,1.70014 c -0.74574,0.93508 -4.68688,5.86715 -8.75809,10.96016 l -7.40219,9.26001 H 98.588762 94.95475 Z"
             style="opacity:1;fill:#bcbcbd;fill-opacity:1;fill-rule:evenodd;stroke:none;stroke-width:0.13362648;stroke-linecap:round;stroke-miterlimit:4;stroke-dasharray:none;stroke-opacity:1;paint-order:stroke fill markers" />
          <path
             transform="matrix(0.26458333,0,0,0.26458333,0,87)"
             inkscape:connector-curvature="0"
             id="path4743"
             d="m -74.546352,1124.7281 c -0.397844,-2.4074 -0.246419,-3.2288 1.019966,-5.5327 1.033212,-1.8797 5.806181,-6.9093 27.607607,-29.092 14.497134,-14.7506 30.570414,-31.3934 35.718395,-36.984 l 9.35996922,-10.1646 H 2.5632437 5.9669022 l -0.8922874,0.9722 c -26.7189488,29.114 -41.7887628,45.0138 -56.7348908,59.8597 -9.310457,9.2479 -18.218826,18.0445 -19.796375,19.5479 l -2.868273,2.7334 z"
             style="opacity:1;fill:#bcbcbd;fill-opacity:1;fill-rule:evenodd;stroke:none;stroke-width:0.13362648;stroke-linecap:round;stroke-miterlimit:4;stroke-dasharray:none;stroke-opacity:1;paint-order:stroke fill markers" />
          <path
             transform="matrix(0.26458333,0,0,0.26458333,0,87)"
             inkscape:connector-curvature="0"
             id="path4745"
             d="m 427.26986,449.98224 c -0.149,-0.14924 -1.17326,-0.23463 -3.30114,-0.27518 -1.69681,-0.0323 -3.08511,-0.10008 -3.08511,-0.15054 0,-0.12912 99.17124,-157.78239 99.41448,-158.03995 0.15169,-0.16062 0.63112,0.17379 2.01036,1.40226 1.69121,1.50633 1.79535,1.63738 1.5723,1.97868 -0.13138,0.20104 -20.74473,33.45811 -45.80744,73.90462 -39.32998,63.47122 -49.3153,79.54421 -50.37812,81.09172 -0.16505,0.24032 -0.25499,0.25901 -0.42533,0.0884 z"
             style="opacity:1;fill:#bcbcbd;fill-opacity:1;fill-rule:evenodd;stroke:none;stroke-width:0.06681324;stroke-linecap:round;stroke-miterlimit:4;stroke-dasharray:none;stroke-opacity:1;paint-order:stroke fill markers" />
        </g>
        <path
           inkscape:connector-curvature="0"
           id="path4944"
           d="m 13.725439,109.94725 -1.190625,-4.49792 -5.2916666,-1.19063 -4.2333333,3.70417 -0.1322916,7.9375 4.7624999,1.5875 1.8520833,-4.36562 z"
           style="fill:#373737;fill-opacity:1;fill-rule:evenodd;stroke:none;stroke-width:0.26458332px;stroke-linecap:butt;stroke-linejoin:miter;stroke-opacity:1" />
      </g>
    </g>
  </g>
</svg>
