<svg id="svg" version="1.1" xmlns="http://www.w3.org/2000/svg" xmlns:xlink="http://www.w3.org/1999/xlink" width="400" height="403.03657694962044" viewBox="0, 0, 400,403.03657694962044"><g id="svgg"><path id="path0" d="M3.727 0.518 C 0.653 1.929,-0.952 6.092,0.383 9.188 C 0.594 9.676,9.786 22.871,20.811 38.509 L 40.855 66.943 40.855 156.991 L 40.856 247.039 29.055 247.122 L 17.253 247.205 15.735 248.062 C 14.858 248.557,13.867 249.412,13.389 250.087 L 12.560 251.255 12.560 285.714 L 12.560 320.173 13.399 321.367 C 13.960 322.165,14.777 322.836,15.864 323.392 L 17.490 324.224 174.998 324.224 L 332.505 324.224 333.882 323.589 C 337.806 321.780,337.734 322.102,337.834 305.935 C 337.881 298.148,338.023 292.340,338.165 292.340 C 339.791 292.340,345.743 295.822,347.759 297.953 C 351.480 301.888,351.415 301.350,351.415 327.951 L 351.415 350.370 350.597 352.065 C 347.832 357.800,342.357 361.337,331.342 364.505 L 327.970 365.475 272.128 365.623 C 241.416 365.704,198.746 365.836,177.306 365.916 L 138.325 366.063 138.244 357.406 L 138.164 348.748 137.369 347.706 C 136.248 346.237,136.631 346.346,117.946 342.196 L 101.040 338.440 81.318 338.440 C 60.223 338.440,60.680 338.410,59.142 339.894 C 57.913 341.079,57.698 342.084,57.697 346.653 L 57.695 350.587 47.706 350.587 C 38.129 350.587,37.668 350.610,36.522 351.165 C 33.294 352.728,33.079 357.591,36.152 359.503 C 37.106 360.096,37.368 360.112,47.412 360.192 L 57.695 360.274 57.695 369.785 L 57.695 379.296 47.384 379.296 C 35.897 379.296,36.204 379.247,34.670 381.318 C 33.755 382.552,33.845 385.501,34.836 386.801 C 36.263 388.672,36.329 388.682,47.592 388.682 L 57.695 388.682 57.695 394.021 C 57.695 400.193,57.988 401.230,60.062 402.411 L 61.146 403.027 81.159 403.039 L 101.173 403.051 118.259 399.263 C 140.465 394.340,138.133 396.104,138.244 384.147 L 138.324 375.510 233.620 375.315 L 328.916 375.120 332.091 374.283 C 347.374 370.254,355.629 364.611,359.687 355.419 L 360.663 353.209 360.737 328.226 L 360.811 303.244 360.106 300.783 C 357.697 292.373,351.811 286.947,340.859 283.044 L 337.895 281.988 337.892 267.715 C 337.888 251.259,337.878 251.169,335.992 249.291 C 333.801 247.109,333.513 247.067,320.603 247.067 L 309.455 247.067 309.455 235.892 L 309.455 224.717 352.174 224.643 C 399.262 224.561,395.904 224.687,398.217 222.923 C 400.166 221.436,400.000 229.061,400.000 140.907 L 400.000 61.470 399.311 60.295 C 398.789 59.403,398.212 58.915,396.921 58.269 L 395.219 57.419 388.925 57.419 L 382.631 57.419 382.551 45.873 L 382.471 34.327 381.792 33.337 C 379.683 30.260,380.279 30.318,351.415 30.418 L 326.708 30.504 325.160 31.230 C 324.224 31.669,323.297 32.369,322.814 33.002 L 322.015 34.049 321.938 45.734 L 321.860 57.419 315.665 57.419 L 309.471 57.419 309.394 31.125 L 309.317 4.831 308.459 3.313 C 307.863 2.256,307.197 1.542,306.273 0.966 L 304.943 0.138 154.887 0.075 C 9.798 0.013,4.794 0.028,3.727 0.518 M368.465 49.068 L 368.538 57.419 352.247 57.419 L 335.956 57.419 335.956 48.997 L 335.956 40.575 352.174 40.647 L 368.392 40.718 368.465 49.068 M208.456 93.862 C 225.041 97.660,238.666 100.824,238.735 100.893 C 238.804 100.962,234.092 103.363,228.264 106.229 C 222.436 109.095,210.059 115.191,200.759 119.775 C 184.312 127.882,183.823 128.102,182.816 127.835 C 182.246 127.684,168.675 124.572,152.657 120.918 C 136.639 117.265,123.330 114.185,123.080 114.074 C 122.568 113.845,176.647 87.015,177.694 86.978 C 178.028 86.966,191.870 90.064,208.456 93.862 M345.894 140.097 L 345.894 183.023 327.674 183.023 L 309.455 183.023 309.455 140.097 L 309.455 97.170 327.674 97.170 L 345.894 97.170 345.894 140.097 M247.609 137.957 L 247.599 165.769 219.575 179.572 C 204.162 187.164,191.434 193.416,191.290 193.467 C 190.859 193.618,190.942 138.113,191.373 137.842 C 191.989 137.457,247.198 110.191,247.412 110.168 C 247.526 110.155,247.614 122.660,247.609 137.957 M145.175 131.003 C 162.120 134.883,176.263 138.126,176.605 138.210 L 177.226 138.362 177.226 166.495 L 177.226 194.627 176.497 194.445 C 176.096 194.344,161.842 191.076,144.820 187.183 L 113.872 180.104 113.801 152.026 C 113.749 130.987,113.811 123.948,114.049 123.948 C 114.224 123.948,128.231 127.122,145.175 131.003 M175.017 259.511 C 246.149 259.511,308.540 259.439,313.665 259.352 L 322.981 259.192 322.981 285.704 L 322.981 312.215 175.017 312.215 L 27.053 312.215 27.053 285.704 L 27.053 259.192 36.370 259.352 C 41.494 259.439,103.885 259.511,175.017 259.511 M104.348 286.266 L 104.348 305.038 107.937 305.038 L 111.525 305.038 111.525 303.344 L 111.525 301.651 112.076 302.352 C 114.909 305.953,122.269 306.739,127.650 304.014 C 134.753 300.417,136.479 287.815,130.619 282.334 C 125.772 277.799,116.769 278.005,112.465 282.748 L 111.525 283.784 111.525 275.639 L 111.525 267.495 107.937 267.495 L 104.348 267.495 104.348 286.266 M141.063 286.266 L 141.063 305.038 144.651 305.038 L 148.240 305.038 148.240 286.266 L 148.240 267.495 144.651 267.495 L 141.063 267.495 141.063 286.266 M245.687 275.175 L 245.687 282.854 244.416 281.671 C 241.036 278.524,233.470 278.242,228.950 281.094 C 221.593 285.739,220.871 298.512,227.689 303.394 C 232.737 307.009,241.097 306.226,245.022 301.770 L 245.669 301.035 245.678 303.037 L 245.687 305.038 249.275 305.038 L 252.864 305.038 252.864 286.266 L 252.864 267.495 249.275 267.495 L 245.687 267.495 245.687 275.175 M166.736 279.280 C 153.087 281.562,150.585 300.536,163.371 304.791 C 167.523 306.172,174.452 305.895,179.085 304.162 L 180.538 303.618 180.538 301.149 L 180.538 298.679 179.215 299.350 C 171.908 303.053,162.319 300.456,162.319 294.775 L 162.319 293.996 172.671 293.996 L 183.023 293.996 183.018 292.133 C 182.994 282.960,176.305 277.679,166.736 279.280 M202.686 279.500 C 200.621 280.080,199.683 280.622,198.015 282.200 L 196.549 283.586 196.549 281.614 L 196.549 279.641 192.961 279.641 L 189.372 279.641 189.372 292.340 L 189.372 305.038 192.961 305.038 L 196.549 305.038 196.551 297.239 C 196.553 288.302,196.627 287.859,198.431 285.995 C 201.260 283.072,206.384 283.061,208.347 285.973 C 209.407 287.546,209.521 288.607,209.522 296.963 L 209.524 305.038 213.129 305.038 L 216.735 305.038 216.645 295.721 C 216.543 285.173,216.437 284.576,214.224 282.061 C 211.998 279.533,206.731 278.364,202.686 279.500 M172.347 283.946 C 173.937 284.488,175.392 286.097,175.817 287.785 C 176.381 290.028,176.934 289.855,169.190 289.855 L 162.259 289.855 162.429 289.177 C 163.520 284.829,168.002 282.466,172.347 283.946 M122.616 284.418 C 128.666 286.953,128.100 298.320,121.818 300.461 C 118.017 301.756,113.814 300.390,112.077 297.296 C 111.215 295.760,111.072 290.215,111.849 288.455 C 113.513 284.685,118.653 282.757,122.616 284.418 M241.901 284.556 C 244.832 285.852,245.691 287.544,245.675 291.986 C 245.651 298.270,243.460 300.760,237.957 300.758 C 233.126 300.757,230.665 298.400,230.307 293.430 C 229.797 286.354,235.719 281.821,241.901 284.556 M91.107 299.007 C 86.509 300.355,87.609 305.590,92.491 305.590 C 97.922 305.590,98.525 299.615,93.168 298.878 C 92.560 298.795,91.633 298.853,91.107 299.007 M98.965 348.381 C 102.860 348.787,105.287 349.254,117.805 352.012 L 128.088 354.277 128.088 370.641 L 128.088 387.004 127.053 387.282 C 107.964 392.401,102.597 393.127,82.609 393.300 L 67.633 393.430 67.633 370.587 L 67.633 347.745 81.781 347.905 C 89.562 347.992,97.295 348.206,98.965 348.381 " stroke="none" fill="#040404" fill-rule="evenodd"></path></g></svg>