<svg id="svg" version="1.1" xmlns="http://www.w3.org/2000/svg" xmlns:xlink="http://www.w3.org/1999/xlink" width="400" height="468.64490603363004" viewBox="0, 0, 400,468.64490603363004"><g id="svgg"><path id="path0" d="M4.220 0.366 C 1.536 1.294,-0.179 3.897,0.045 6.703 C 0.096 7.351,19.876 77.348,47.442 174.432 L 94.750 341.051 59.353 391.880 C 39.884 419.836,23.759 443.092,23.519 443.560 C 22.498 445.553,22.794 447.970,24.351 450.356 C 30.935 460.441,40.497 466.769,51.533 468.344 C 54.947 468.831,326.328 468.690,328.636 468.199 C 339.450 465.903,346.995 460.850,353.814 451.335 C 355.975 448.320,356.466 445.798,355.325 443.579 C 355.090 443.122,338.962 419.866,319.485 391.899 L 284.074 341.051 295.063 302.326 C 301.108 281.027,306.230 263.001,306.446 262.269 L 306.839 260.937 326.763 260.884 L 346.686 260.831 347.810 260.279 C 349.030 259.680,349.915 258.799,350.552 257.551 C 351.111 256.455,399.805 74.773,399.940 73.279 C 400.210 70.289,398.394 67.658,395.458 66.786 C 394.515 66.506,392.483 66.469,378.190 66.469 L 361.991 66.469 362.132 66.024 C 365.004 56.980,378.846 7.007,378.777 5.932 C 378.626 3.573,377.370 1.664,375.304 0.649 L 374.184 0.099 189.713 0.056 C 13.026 0.014,5.199 0.027,4.220 0.366 M363.782 13.996 C 363.573 14.730,358.651 32.061,352.844 52.508 L 342.287 89.686 338.156 91.754 C 296.879 112.425,247.989 113.316,193.436 94.392 C 137.561 75.009,83.822 76.033,41.426 97.289 L 39.035 98.488 27.204 56.811 C 20.697 33.888,15.215 14.577,15.020 13.897 L 14.667 12.661 189.415 12.661 L 364.163 12.661 363.782 13.996 M385.271 79.674 C 385.204 79.973,375.021 118.007,362.641 164.194 L 340.134 248.170 325.265 248.221 C 313.400 248.261,310.415 248.221,310.484 248.023 C 310.531 247.886,321.303 209.941,334.420 163.699 C 347.538 117.458,358.310 79.513,358.358 79.377 C 358.426 79.182,361.318 79.130,371.919 79.130 L 385.392 79.130 385.271 79.674 M130.663 93.659 C 152.378 95.434,167.915 98.904,193.074 107.597 C 244.268 125.286,295.302 124.757,337.433 106.102 C 337.615 106.022,337.605 106.234,337.393 106.954 C 337.237 107.481,322.683 158.744,305.049 220.870 C 287.416 282.997,272.854 334.295,272.691 334.866 L 272.393 335.905 189.416 335.905 L 106.440 335.905 106.140 334.866 C 105.975 334.295,91.639 283.798,74.282 222.651 C 56.925 161.503,42.677 111.324,42.619 111.141 C 42.430 110.543,52.130 105.973,59.545 103.166 C 80.713 95.154,106.606 91.692,130.663 93.659 M111.771 150.751 C 85.594 160.989,82.470 162.245,82.553 162.495 C 82.693 162.916,112.975 176.303,118.442 178.362 L 119.673 178.826 121.904 178.060 C 128.600 175.763,151.864 166.706,156.043 164.769 C 157.586 164.053,157.728 163.944,157.411 163.709 C 156.883 163.318,121.492 147.664,120.673 147.459 C 120.509 147.419,116.503 148.900,111.771 150.751 M251.632 162.225 C 236.252 164.365,218.610 166.867,215.874 167.295 C 214.148 167.566,213.881 167.656,214.083 167.899 C 215.230 169.281,252.559 197.461,254.284 198.247 C 255.775 198.926,305.634 192.089,305.130 191.274 C 304.724 190.616,264.862 160.422,264.445 160.456 C 264.307 160.467,258.541 161.263,251.632 162.225 M77.365 168.401 C 76.786 171.275,71.185 208.096,71.257 208.551 C 71.301 208.826,73.007 209.659,78.140 211.909 C 104.676 223.541,109.116 225.459,109.241 225.345 C 109.577 225.041,110.879 217.111,113.728 198.022 C 115.561 185.744,115.781 184.162,115.670 184.051 C 115.608 183.990,81.393 168.997,78.203 167.634 L 77.574 167.365 77.365 168.401 M141.741 177.796 C 131.296 181.880,122.733 185.232,122.713 185.245 C 122.659 185.281,117.603 218.543,117.109 222.109 C 116.493 226.554,116.243 226.292,119.782 224.913 C 121.414 224.276,129.956 220.948,138.763 217.517 C 147.570 214.085,154.834 211.211,154.906 211.129 C 155.023 210.994,161.232 171.169,161.228 170.574 C 161.226 170.172,161.496 170.072,141.741 177.796 M205.379 175.116 C 203.956 178.492,198.980 190.663,191.897 208.091 C 187.676 218.478,186.768 220.875,186.980 221.070 C 187.181 221.255,219.889 245.975,226.805 251.169 C 227.888 251.982,228.242 252.157,228.430 251.970 C 229.047 251.357,247.655 205.890,248.004 204.144 C 248.107 203.631,247.878 203.423,244.086 200.576 C 241.871 198.913,232.804 192.078,223.937 185.386 C 215.069 178.693,207.534 173.009,207.192 172.754 L 206.571 172.290 205.379 175.116 M281.327 203.733 L 256.324 207.221 248.332 226.904 C 236.906 255.043,236.814 255.285,237.612 255.110 C 237.870 255.053,242.399 254.421,247.676 253.706 C 265.225 251.327,288.030 248.139,288.100 248.055 C 288.157 247.988,307.086 201.691,307.530 200.534 C 307.720 200.038,308.558 199.935,281.327 203.733 M161.128 215.046 C 147.275 219.894,118.668 230.144,118.405 230.354 C 117.934 230.728,95.351 278.499,95.351 279.119 C 95.351 279.667,124.671 269.491,141.048 263.259 C 146.607 261.144,145.694 262.039,149.019 255.448 C 155.749 242.103,169.139 213.569,169.139 212.573 C 169.139 212.291,167.957 212.656,161.128 215.046 M177.881 216.149 C 175.644 220.538,154.892 264.645,154.955 264.876 C 155.001 265.045,160.330 272.839,166.797 282.197 C 182.956 305.580,185.642 309.397,185.934 309.397 C 186.018 309.397,186.624 308.262,187.281 306.874 C 187.938 305.487,193.164 294.480,198.895 282.413 L 209.314 260.475 208.643 259.466 C 207.316 257.470,178.597 215.723,178.436 215.555 C 178.346 215.461,178.096 215.728,177.881 216.149 M256.775 259.959 C 230.824 262.097,225.597 262.566,225.398 262.775 C 225.044 263.148,207.063 284.446,203.992 288.131 C 202.450 289.980,201.188 291.570,201.188 291.663 C 201.187 291.851,202.297 291.789,211.573 291.083 C 227.085 289.903,238.224 288.845,238.845 288.491 C 239.969 287.853,263.304 260.351,263.304 259.665 C 263.304 259.483,261.661 259.556,256.775 259.959 M267.821 264.532 C 267.225 265.216,262.032 271.340,256.282 278.140 C 250.531 284.941,245.442 290.958,244.972 291.513 L 244.117 292.522 244.887 294.679 C 252.080 314.822,256.885 327.971,257.156 328.250 C 257.241 328.337,257.842 327.803,258.492 327.063 C 259.637 325.759,281.147 300.329,281.659 299.675 C 281.886 299.384,269.593 264.091,269.039 263.444 C 268.966 263.358,268.418 263.847,267.821 264.532 M145.796 270.323 C 145.415 270.468,133.905 274.591,120.217 279.485 C 106.529 284.379,95.280 288.432,95.220 288.492 C 95.160 288.552,96.160 290.142,97.443 292.026 C 104.042 301.717,125.991 333.549,126.316 333.899 C 126.523 334.122,130.277 332.844,148.792 326.245 C 174.724 317.001,178.020 315.814,178.174 315.661 C 178.477 315.357,171.607 305.182,154.241 280.218 C 146.385 268.924,147.140 269.808,145.796 270.323 M218.365 296.216 C 208.064 297.100,199.582 297.879,199.514 297.947 C 199.409 298.052,201.995 305.390,210.694 329.674 C 211.590 332.176,212.384 334.293,212.458 334.377 C 212.560 334.494,241.162 332.214,249.505 331.424 C 251.025 331.280,251.030 331.272,250.527 329.580 C 249.965 327.688,239.960 299.807,238.368 295.697 C 238.016 294.790,237.843 294.565,237.510 294.584 C 237.280 294.597,228.665 295.332,218.365 296.216 M199.019 372.301 C 220.775 376.466,228.686 403.574,212.618 418.904 C 195.306 435.419,166.667 423.082,166.667 399.110 C 166.667 381.835,182.085 369.059,199.019 372.301 " stroke="none" fill="#000000" fill-rule="evenodd"></path></g></svg>