<svg id="svg" version="1.1" xmlns="http://www.w3.org/2000/svg" xmlns:xlink="http://www.w3.org/1999/xlink" width="400" height="400" viewBox="0, 0, 400,400"><g id="svgg"><path id="path0" d="M7.360 0.208 C 3.956 0.879,0.833 4.061,0.193 7.511 C -0.078 8.972,-0.074 391.059,0.197 392.488 C 0.871 396.042,3.979 399.152,7.511 399.807 C 8.952 400.074,391.048 400.074,392.489 399.807 C 396.021 399.152,399.129 396.042,399.803 392.488 C 400.074 391.061,400.078 127.368,399.807 125.908 C 399.223 122.759,404.893 128.650,338.606 62.322 C 279.236 2.915,277.720 1.431,275.519 0.557 L 274.360 0.097 141.284 0.069 C 67.107 0.054,7.833 0.115,7.360 0.208 M263.254 72.490 C 263.254 131.853,263.170 127.496,264.357 129.599 C 265.029 130.789,266.627 132.403,267.804 133.079 C 269.965 134.322,265.568 134.235,326.260 134.235 L 381.458 134.235 381.458 257.943 L 381.458 381.651 200.000 381.651 L 18.542 381.651 18.542 200.000 L 18.542 18.349 140.898 18.349 L 263.254 18.349 263.254 72.490 M323.805 73.781 L 365.910 115.886 323.756 115.886 L 281.603 115.886 281.603 73.781 C 281.603 50.623,281.625 31.676,281.652 31.676 C 281.678 31.676,300.647 50.623,323.805 73.781 M212.844 229.261 L 212.844 300.724 223.851 300.724 L 234.858 300.724 234.908 293.725 L 234.959 286.726 236.066 288.390 C 242.090 297.444,250.219 302.162,260.955 302.836 C 288.800 304.584,306.766 283.767,306.783 249.734 C 306.799 219.083,291.422 200.978,266.152 201.897 C 253.275 202.365,243.543 207.946,236.287 219.025 L 234.959 221.053 234.910 189.425 L 234.861 157.798 223.853 157.798 L 212.844 157.798 212.844 229.261 M337.878 159.155 C 325.121 161.457,323.465 178.817,335.583 183.216 C 345.499 186.815,355.566 178.617,353.367 168.732 C 351.923 162.244,344.882 157.890,337.878 159.155 M138.098 201.963 C 109.106 204.001,92.146 221.990,91.418 251.473 C 90.576 285.557,113.480 306.327,147.755 302.561 C 177.718 299.269,194.649 274.694,189.938 241.333 C 186.190 214.788,166.659 199.956,138.098 201.963 M329.062 254.032 C 328.995 308.278,329.066 304.622,327.965 310.381 C 324.801 326.931,313.123 333.027,300.338 324.802 L 299.276 324.118 299.225 333.522 C 299.179 342.100,299.203 342.947,299.495 343.162 C 301.598 344.705,307.926 346.016,313.182 345.997 C 333.801 345.922,347.077 332.925,350.353 309.609 C 351.208 303.519,351.194 304.397,351.272 253.259 L 351.348 204.153 340.236 204.153 L 329.125 204.153 329.062 254.032 M146.886 219.889 C 160.635 222.319,167.933 233.637,167.936 252.535 C 167.940 273.847,158.683 285.328,141.478 285.347 C 123.431 285.368,112.586 271.333,113.955 249.728 C 115.098 231.679,123.567 221.332,138.677 219.526 C 140.043 219.363,145.198 219.591,146.886 219.889 M265.669 219.962 C 279.125 222.812,286.384 237.825,283.845 257.557 C 281.670 274.461,273.733 284.024,260.817 285.305 C 248.316 286.545,237.718 278.436,235.113 265.638 C 234.539 262.816,234.595 245.169,235.188 241.912 C 238.044 226.239,251.057 216.868,265.669 219.962 M56.977 277.437 C 48.481 279.240,43.879 288.102,47.601 295.492 C 53.575 307.354,73.034 303.830,73.729 290.760 C 74.185 282.195,65.838 275.557,56.977 277.437 " stroke="none" fill="#040404" fill-rule="evenodd"></path><path id="path1" d="" stroke="none" fill="#080404" fill-rule="evenodd"></path></g></svg>