<svg id="svg" version="1.1" xmlns="http://www.w3.org/2000/svg" xmlns:xlink="http://www.w3.org/1999/xlink" width="400" height="400" viewBox="0, 0, 400,400"><g id="svgg"><path id="path0" d="M7.360 0.208 C 3.956 0.879,0.833 4.061,0.193 7.511 C -0.078 8.972,-0.074 391.059,0.197 392.488 C 0.871 396.042,3.979 399.152,7.511 399.807 C 8.952 400.074,391.048 400.074,392.489 399.807 C 396.021 399.152,399.129 396.042,399.803 392.488 C 400.074 391.061,400.078 127.368,399.807 125.908 C 399.223 122.759,404.893 128.650,338.606 62.322 C 279.236 2.915,277.720 1.431,275.519 0.557 L 274.360 0.097 141.284 0.069 C 67.107 0.054,7.833 0.115,7.360 0.208 M263.254 72.490 C 263.254 131.853,263.170 127.496,264.357 129.599 C 265.029 130.789,266.627 132.403,267.804 133.079 C 269.965 134.322,265.568 134.235,326.260 134.235 L 381.458 134.235 381.458 257.943 L 381.458 381.651 200.000 381.651 L 18.542 381.651 18.542 200.000 L 18.542 18.349 140.898 18.349 L 263.254 18.349 263.254 72.490 M323.805 73.781 L 365.910 115.886 323.756 115.886 L 281.603 115.886 281.603 73.781 C 281.603 50.623,281.625 31.676,281.652 31.676 C 281.678 31.676,300.647 50.623,323.805 73.781 M216.707 228.682 L 216.707 300.145 227.813 300.145 L 238.918 300.145 238.918 228.682 L 238.918 157.219 227.813 157.219 L 216.707 157.219 216.707 228.682 M152.016 201.459 C 139.879 202.422,130.683 207.992,123.828 218.532 L 122.453 220.646 122.453 212.110 L 122.453 203.573 111.347 203.573 L 100.241 203.573 100.241 274.070 L 100.241 344.568 111.347 344.568 L 122.452 344.568 122.501 315.287 L 122.549 286.006 123.842 287.909 C 129.722 296.562,138.064 301.373,148.383 302.059 C 172.796 303.684,189.942 287.709,193.763 259.778 C 194.361 255.408,194.413 243.445,193.853 239.305 C 190.384 213.689,174.860 199.647,152.016 201.459 M253.597 203.755 C 253.597 203.855,257.365 213.394,261.971 224.953 C 266.576 236.511,275.179 258.108,281.087 272.945 L 291.830 299.921 288.654 307.656 C 285.068 316.391,284.960 316.622,283.373 318.992 C 278.106 326.856,269.385 329.533,259.198 326.414 C 258.508 326.202,257.878 326.028,257.798 326.028 C 257.504 326.025,257.626 344.323,257.921 344.436 C 260.281 345.342,271.419 345.824,275.036 345.178 C 288.204 342.826,297.951 334.502,305.829 318.883 C 306.944 316.671,337.211 239.381,350.891 203.813 C 350.965 203.619,348.727 203.580,339.823 203.620 L 328.661 203.670 316.713 238.436 C 308.170 263.294,304.503 274.220,303.845 276.775 C 303.338 278.740,302.841 280.357,302.741 280.368 C 302.641 280.380,302.158 278.772,301.667 276.795 C 301.081 274.433,298.048 264.895,292.816 248.962 C 288.438 235.630,283.293 219.964,281.383 214.148 L 277.911 203.573 265.754 203.573 C 258.270 203.573,253.597 203.643,253.597 203.755 M152.316 219.324 C 166.186 221.742,173.579 236.006,171.433 256.205 C 169.706 272.456,162.087 282.670,150.260 284.588 C 137.057 286.729,125.631 278.840,122.717 265.572 C 122.113 262.822,122.174 243.970,122.797 240.897 C 125.857 225.801,138.109 216.846,152.316 219.324 M60.832 276.787 C 45.887 278.375,45.176 299.193,59.971 302.021 C 74.624 304.822,82.786 287.079,70.595 278.925 C 68.628 277.609,63.868 276.267,62.385 276.610 C 62.332 276.623,61.633 276.702,60.832 276.787 " stroke="none" fill="#000000" fill-rule="evenodd"></path></g></svg>