<svg id="svg" version="1.1" xmlns="http://www.w3.org/2000/svg" xmlns:xlink="http://www.w3.org/1999/xlink" width="400" height="400" viewBox="0, 0, 400,400"><g id="svgg"><path id="path0" d="M7.360 0.208 C 3.956 0.879,0.833 4.061,0.193 7.511 C -0.078 8.972,-0.074 391.059,0.197 392.488 C 0.871 396.042,3.979 399.152,7.511 399.807 C 8.952 400.074,391.048 400.074,392.489 399.807 C 396.021 399.152,399.129 396.042,399.803 392.488 C 400.074 391.061,400.078 127.368,399.807 125.908 C 399.223 122.759,404.893 128.650,338.606 62.322 C 279.236 2.915,277.720 1.431,275.519 0.557 L 274.360 0.097 141.284 0.069 C 67.107 0.054,7.833 0.115,7.360 0.208 M263.254 72.490 C 263.254 131.853,263.170 127.496,264.357 129.599 C 265.029 130.789,266.627 132.403,267.804 133.079 C 269.965 134.322,265.568 134.235,326.260 134.235 L 381.458 134.235 381.458 257.943 L 381.458 381.651 200.000 381.651 L 18.542 381.651 18.542 200.000 L 18.542 18.349 140.898 18.349 L 263.254 18.349 263.254 72.490 M323.805 73.781 L 365.910 115.886 323.756 115.886 L 281.603 115.886 281.603 73.781 C 281.603 50.623,281.625 31.676,281.652 31.676 C 281.678 31.676,300.647 50.623,323.805 73.781 M291.067 231.000 L 291.067 302.463 302.076 302.463 L 313.085 302.463 313.085 231.000 L 313.085 159.536 302.076 159.536 L 291.067 159.536 291.067 231.000 M238.194 180.435 L 227.330 183.534 227.330 194.712 L 227.330 205.891 219.218 205.891 L 211.106 205.891 211.106 214.582 L 211.106 223.274 219.218 223.274 L 227.330 223.274 227.330 252.139 C 227.330 283.386,227.321 283.098,228.378 287.266 C 230.454 295.450,235.811 300.928,243.968 303.209 C 251.829 305.408,264.012 304.942,270.667 302.188 L 272.236 301.539 272.286 292.705 L 272.336 283.871 271.900 284.183 C 265.003 289.112,254.318 287.763,251.166 281.566 C 249.367 278.030,249.349 277.701,249.349 248.624 L 249.348 223.274 260.840 223.274 L 272.332 223.274 272.332 214.582 L 272.332 205.891 260.840 205.891 L 249.348 205.891 249.348 191.598 C 249.348 183.737,249.283 177.312,249.203 177.321 C 249.124 177.329,244.169 178.730,238.194 180.435 M166.972 203.790 C 143.560 205.581,129.307 219.657,132.575 237.760 C 134.625 249.113,141.907 255.257,161.951 262.546 C 167.323 264.500,167.914 264.735,169.824 265.689 C 177.025 269.283,179.865 273.701,178.553 279.267 C 175.747 291.172,149.543 291.627,133.622 280.047 C 132.900 279.522,132.264 279.092,132.210 279.092 C 132.155 279.092,132.110 283.693,132.110 289.315 L 132.110 299.538 134.605 300.510 C 145.041 304.577,158.768 305.818,170.932 303.794 C 191.572 300.360,202.519 288.445,200.462 271.656 C 199.043 260.080,190.009 252.024,171.006 245.392 C 157.484 240.672,154.128 237.893,154.128 231.413 C 154.128 219.139,178.421 215.874,194.013 226.053 C 194.756 226.538,195.430 226.937,195.509 226.939 C 195.589 226.942,195.654 222.608,195.654 217.309 L 195.654 207.674 194.351 207.192 C 186.987 204.471,175.969 203.102,166.972 203.790 M98.220 279.114 C 93.021 279.871,88.341 283.976,87.211 288.769 C 84.162 301.706,100.894 310.056,110.594 300.439 C 119.593 291.515,111.292 277.210,98.220 279.114 " stroke="none" fill="#040404" fill-rule="evenodd"></path><path id="path1" d="" stroke="none" fill="#080404" fill-rule="evenodd"></path></g></svg>